:SAMPLES-PER-SECOND 30
:FRAME-RANGE 1-1390
:FULLY-SPECIFIED
:DEGREES
739
root  -3.21052 37.9754 -58.0453 0.502694 -52.4165 -10.3069
RightUpLeg  4.48643 -8.98201 5.35109
RightLeg  29.8634 -2.04487 -1.51352
RightFoot  -22.9865 0.311277 4.57943
RightToes  -2.9104e-010 0 -3.6325e-017
Spine  20.6405 -0.00357227 -5.49101
Spine1  -0.572606 -5.52911 8.74867
HEad  -1.77634 20.3196 1.81968
LeftShoulder1  3.12146 -5.24617 -29.6485
LeftArm  91.6761 -34.417 -89.1426
LeftForeArm  -11.9231 -18.8096 -10.7472
LeftHand  -0.0449312 4.2204 2.39323
RightShoulder  12.8327 22.3366 43.1715
RightArm  37.3521 9.56987 22.0223
RightForeArm  24.8599 28.591 4.82799
RightHand  0.940303 5.78792 9.39727
LeftUpLeg  -93.2108 21.1628 -70.6064
LeftLeg  120.336 -3.469 4.94031
LeftFoot  10.2077 2.67075 -14.303
LeftToes  5.45371e-012 -1.3743e-010 1.09575e-010
740
root  -4.95648 39.2563 -57.2039 -1.27222 -54.2135 -8.13016
RightUpLeg  10.2541 -8.85189 3.08573
RightLeg  23.3032 0.564706 0.0430321
RightFoot  -14.795 0.139806 7.95978
RightToes  -2.9104e-010 0 -3.6325e-017
Spine  18.5003 0.868947 -6.37672
Spine1  -1.64723 -4.15035 6.24792
HEad  1.79102 20.2018 2.30021
LeftShoulder1  3.05174 -5.11712 -29.368
LeftArm  92.2918 -32.3321 -87.7963
LeftForeArm  -11.69 -19.199 -10.2766
LeftHand  -0.0354589 3.84805 1.16741
RightShoulder  12.7326 21.2923 44.7497
RightArm  39.2727 6.55239 22.4453
RightForeArm  23.0203 28.7403 4.9631
RightHand  0.956959 5.74742 9.60578
LeftUpLeg  -94.8371 21.1157 -71.1427
LeftLeg  124.349 -3.47318 4.22932
LeftFoot  11.3211 2.64063 -13.4749
LeftToes  5.45371e-012 -1.3743e-010 1.09575e-010
741
root  -6.40728 40.4111 -56.2448 -2.55823 -55.9719 -7.07303
RightUpLeg  12.4086 -9.40765 0.690825
RightLeg  22.7635 3.17865 1.24418
RightFoot  -3.98312 -0.854331 12.8127
RightToes  -2.9104e-010 0 -3.6325e-017
Spine  17.3522 0.981619 -6.04903
Spine1  -1.80036 -3.56699 4.43384
HEad  3.51997 21.8239 0.825955
LeftShoulder1  3.01343 -5.13261 -28.8502
LeftArm  87.9294 -31.9664 -87.0682
LeftForeArm  -6.69462 -18.1282 -11.1985
LeftHand  -0.0297905 3.95681 0.718536
RightShoulder  13.2535 21.2462 46.747
RightArm  41.1314 5.64737 23.0083
RightForeArm  21.4211 27.3052 4.72583
RightHand  0.917957 5.6668 9.2748
LeftUpLeg  -96.5595 21.2671 -71.0108
LeftLeg  126.63 -4.49286 5.14381
LeftFoot  12.7469 2.75108 -13.215
LeftToes  5.45371e-012 -1.3743e-010 1.09575e-010
742
root  -7.57233 41.3146 -55.3454 -2.72936 -57.3733 -7.53832
RightUpLeg  9.42906 -8.32978 0.784531
RightLeg  29.381 -0.341335 -0.444617
RightFoot  8.35276 -2.02472 11.9583
RightToes  -2.9104e-010 0 -3.6325e-017
Spine  17.8689 0.836709 -5.5494
Spine1  -1.91771 -3.65775 4.4541
HEad  2.97546 24.6879 -1.53715
LeftShoulder1  2.99791 -5.1521 -28.5863
LeftArm  87.5067 -32.4791 -86.6062
LeftForeArm  -7.06592 -18.0136 -11.3466
LeftHand  -0.0282479 3.99121 0.346186
RightShoulder  13.5085 21.2203 47.7214
RightArm  41.0234 6.25737 23.7704
RightForeArm  20.3678 25.4812 4.38113
RightHand  0.881001 5.86719 8.72035
LeftUpLeg  -97.1677 21.1854 -70.2942
LeftLeg  126.618 -5.48509 6.37226
LeftFoot  12.6609 2.23896 -10.874
LeftToes  5.45371e-012 -1.3743e-010 1.09575e-010
743
root  -8.60007 41.8809 -54.5178 -2.52075 -58.4258 -7.97552
RightUpLeg  3.64045 -7.78942 1.84815
RightLeg  39.2537 -7.71478 -6.98022
RightFoot  13.3398 -0.185249 1.26883
RightToes  -2.9104e-010 0 -3.6325e-017
Spine  18.8526 0.729725 -5.91875
Spine1  -1.67256 -4.05287 5.3715
HEad  0.952639 27.4906 -3.05205
LeftShoulder1  2.97404 -5.21817 -28.0365
LeftArm  86.776 -33.7313 -87.2088
LeftForeArm  -7.44858 -17.6966 -11.7125
LeftHand  -0.0288437 4.18518 0.409779
RightShoulder  13.8986 21.8706 47.8304
RightArm  40.1869 7.55093 23.7645
RightForeArm  19.326 24.3632 4.19633
RightHand  0.853552 6.21294 8.16867
LeftUpLeg  -97.667 21.0361 -70.4158
LeftLeg  124.869 -6.26829 7.82063
LeftFoot  11.6131 1.80889 -9.24573
LeftToes  5.45371e-012 -1.3743e-010 1.09575e-010
744
root  -9.54749 42.1205 -53.7196 -1.78696 -58.8413 -8.74912
RightUpLeg  0.11085 -6.73108 3.19677
RightLeg  37.8994 -6.07854 -5.32311
RightFoot  9.63876 -0.425985 2.65846
RightToes  -2.9104e-010 0 -3.6325e-017
Spine  19.9579 0.42237 -6.14987
Spine1  -1.01059 -4.67373 6.20596
HEad  -0.606317 29.429 -4.20848
LeftShoulder1  2.9786 -5.28401 -27.8275
LeftArm  85.4373 -35.0549 -88.1512
LeftForeArm  -5.95588 -17.1385 -12.2094
LeftHand  -0.0307998 4.52199 0.958082
RightShoulder  14.3411 23.1115 47.0063
RightArm  39.6245 9.3493 24.0064
RightForeArm  19.6236 23.1262 4.08243
RightHand  0.841001 6.46283 7.86072
LeftUpLeg  -97.2949 21.2694 -70.9205
LeftLeg  122.575 -5.59091 7.55953
LeftFoot  9.40076 1.6371 -9.24527
LeftToes  5.45371e-012 -1.3743e-010 1.09575e-010
745
root  -10.4614 41.9439 -52.9232 0.148674 -58.9075 -10.4394
RightUpLeg  -1.97419 -5.68753 5.08341
RightLeg  28.4853 -3.14166 -2.0805
RightFoot  5.58104 -1.39294 9.60106
RightToes  -2.9104e-010 0 -3.6325e-017
Spine  21.3343 -0.0562521 -5.51126
Spine1  -0.768375 -5.21777 6.56475
HEad  -1.3477 30.7863 -5.20288
LeftShoulder1  3.02183 -5.38816 -27.9197
LeftArm  84.0969 -35.9626 -88.6707
LeftForeArm  -5.08065 -16.6504 -12.6486
LeftHand  -0.0295051 4.53995 1.46296
RightShoulder  14.5504 24.1041 45.9183
RightArm  38.597 10.9974 24.1303
RightForeArm  21.3039 22.2109 4.33953
RightHand  0.835733 6.75022 7.6092
LeftUpLeg  -96.882 21.3423 -71.4758
LeftLeg  120.521 -4.34763 6.26567
LeftFoot  8.63645 1.85378 -10.8009
LeftToes  5.45371e-012 -1.3743e-010 1.09575e-010
